<svg width="14" height="11" viewBox="0 0 14 11" fill="none" xmlns="http://www.w3.org/2000/svg">
<path d="M8.34844 10.06C8.24177 10.06 8.18844 10.0067 8.18844 9.9V5.26C8.18844 4.3 8.4151 3.44666 8.86844 2.7C9.32177 1.92667 9.90844 1.32667 10.6284 0.899998C11.3751 0.446665 12.1751 0.219999 13.0284 0.219999V2.7C12.3618 2.7 11.7884 2.95333 11.3084 3.46C10.8551 3.96666 10.6284 4.56666 10.6284 5.26H12.8684C12.9751 5.26 13.0284 5.31333 13.0284 5.42V9.9C13.0284 10.0067 12.9751 10.06 12.8684 10.06H8.34844ZM0.908438 10.06C0.801771 10.06 0.748438 10.0067 0.748438 9.9V5.26C0.748438 4.3 0.975104 3.44666 1.42844 2.7C1.88177 1.92667 2.46844 1.32667 3.18844 0.899998C3.9351 0.446665 4.7351 0.219999 5.58844 0.219999V2.7C4.92177 2.7 4.34844 2.95333 3.86844 3.46C3.4151 3.96666 3.18844 4.56666 3.18844 5.26H5.42844C5.5351 5.26 5.58844 5.31333 5.58844 5.42V9.9C5.58844 10.0067 5.5351 10.06 5.42844 10.06H0.908438Z" fill="black"/>
</svg>
