<svg width="13" height="12" viewBox="0 0 13 12" fill="none" xmlns="http://www.w3.org/2000/svg">
<path d="M2.67576 1.3349C2.67558 1.68851 2.53446 2.02755 2.28343 2.27746C2.03241 2.52737 1.69204 2.66767 1.33721 2.6675C0.98238 2.66732 0.64216 2.52668 0.39138 2.27652C0.14061 2.02636 -0.000179828 1.68717 1.72385e-07 1.33357C0.000180172 0.979967 0.1413 0.640917 0.39233 0.391007C0.64336 0.141097 0.98372 0.000796735 1.33855 0.000976735C1.69338 0.00114674 2.0336 0.141787 2.28438 0.391947C2.53515 0.642107 2.67594 0.981297 2.67576 1.3349ZM2.7159 3.65477H0.0401403V12.001H2.7159V3.65477ZM6.9436 3.65477H4.2812V12.001H6.9168V7.6212C6.9168 5.1814 10.1077 4.9547 10.1077 7.6212V12.001H12.75V6.7146C12.75 2.6015 8.0273 2.75482 6.9168 4.7747L6.9436 3.65477Z" fill="#BDB8AD"/>
</svg>
