<svg width="16" height="16" viewBox="0 0 16 16" fill="none" xmlns="http://www.w3.org/2000/svg">
<path d="M8 5.75098C7.4033 5.75098 6.831 5.98803 6.409 6.41C5.98705 6.8319 5.75 7.4042 5.75 8.001C5.75 8.5977 5.98705 9.17 6.409 9.592C6.831 10.0139 7.4033 10.251 8 10.251C8.5967 10.251 9.169 10.0139 9.591 9.592C10.0129 9.17 10.25 8.5977 10.25 8.001C10.25 7.4042 10.0129 6.8319 9.591 6.41C9.169 5.98803 8.5967 5.75098 8 5.75098ZM8 4.25098C8.9946 4.25098 9.9484 4.64606 10.6517 5.34933C11.3549 6.0526 11.75 7.0064 11.75 8.001C11.75 8.9955 11.3549 9.9494 10.6517 10.6526C9.9484 11.3559 8.9946 11.751 8 11.751C7.0054 11.751 6.0516 11.3559 5.34835 10.6526C4.64509 9.9494 4.25 8.9955 4.25 8.001C4.25 7.0064 4.64509 6.0526 5.34835 5.34933C6.0516 4.64606 7.0054 4.25098 8 4.25098ZM12.875 4.06348C12.875 4.31212 12.7762 4.55057 12.6004 4.72639C12.4246 4.9022 12.1861 5.00098 11.9375 5.00098C11.6889 5.00098 11.4504 4.9022 11.2746 4.72639C11.0988 4.55057 11 4.31212 11 4.06348C11 3.81484 11.0988 3.57638 11.2746 3.40056C11.4504 3.22475 11.6889 3.12598 11.9375 3.12598C12.1861 3.12598 12.4246 3.22475 12.6004 3.40056C12.7762 3.57638 12.875 3.81484 12.875 4.06348ZM8 2.00098C6.1445 2.00098 5.8415 2.00623 4.97825 2.04448C4.39025 2.07223 3.99575 2.15098 3.62975 2.29348C3.30425 2.41948 3.0695 2.57023 2.81975 2.82073C2.58501 3.04753 2.40451 3.32441 2.29175 3.63073C2.14925 3.99823 2.0705 4.39198 2.0435 4.97923C2.0045 5.80723 2 6.0967 2 8.001C2 9.8565 2.00525 10.1595 2.0435 11.0227C2.07125 11.61 2.15 12.0052 2.29175 12.3705C2.41925 12.6967 2.56925 12.9315 2.81825 13.1805C3.071 13.4325 3.30575 13.5832 3.62825 13.7077C3.99875 13.851 4.39325 13.9305 4.97825 13.9575C5.80625 13.9965 6.0957 14.001 8 14.001C9.8555 14.001 10.1585 13.9957 11.0217 13.9575C11.6082 13.9297 12.0035 13.851 12.3695 13.7092C12.6943 13.5825 12.9305 13.4317 13.1795 13.1827C13.4323 12.93 13.583 12.6952 13.7075 12.3727C13.85 12.003 13.9295 11.6077 13.9565 11.0227C13.9955 10.1947 14 9.9052 14 8.001C14 6.1455 13.9947 5.84248 13.9565 4.97923C13.9287 4.39273 13.85 3.99673 13.7075 3.63073C13.5945 3.32473 13.4143 3.04795 13.1802 2.82073C12.9535 2.58586 12.6766 2.40535 12.3702 2.29273C12.0027 2.15023 11.6082 2.07148 11.0217 2.04448C10.1937 2.00548 9.9043 2.00098 8 2.00098ZM8 0.500977C10.0378 0.500977 10.292 0.508477 11.0915 0.545977C11.8902 0.583477 12.434 0.708727 12.9125 0.894727C13.4075 1.08523 13.8245 1.34323 14.2415 1.75948C14.6229 2.1344 14.918 2.58792 15.1063 3.08848C15.2915 3.56623 15.4175 4.11073 15.455 4.90948C15.4903 5.70898 15.5 5.96323 15.5 8.001C15.5 10.0387 15.4925 10.293 15.455 11.0925C15.4175 11.8912 15.2915 12.435 15.1063 12.9135C14.9185 13.4143 14.6233 13.8679 14.2415 14.2425C13.8665 14.6237 13.413 14.9188 12.9125 15.1072C12.4347 15.2925 11.8902 15.4185 11.0915 15.456C10.292 15.4912 10.0378 15.501 8 15.501C5.96225 15.501 5.708 15.4935 4.9085 15.456C4.10975 15.4185 3.566 15.2925 3.0875 15.1072C2.58674 14.9193 2.13315 14.6242 1.7585 14.2425C1.37705 13.8676 1.08195 13.4141 0.89375 12.9135C0.70775 12.4357 0.5825 11.8912 0.545 11.0925C0.50975 10.293 0.5 10.0387 0.5 8.001C0.5 5.96323 0.5075 5.70898 0.545 4.90948C0.5825 4.10998 0.70775 3.56698 0.89375 3.08848C1.08143 2.58761 1.3766 2.13397 1.7585 1.75948C2.13325 1.3779 2.58682 1.08277 3.0875 0.894727C3.566 0.708727 4.109 0.583477 4.9085 0.545977C5.708 0.510727 5.96225 0.500977 8 0.500977Z" fill="#BDB8AD"/>
</svg>
