<svg width="16" height="14" viewBox="0 0 16 14" fill="none" xmlns="http://www.w3.org/2000/svg">
<path d="M15.6215 2.24316C15.0489 2.49643 14.4417 2.66277 13.82 2.73666C14.4753 2.34474 14.9658 1.72792 15.2 1.00116C14.585 1.36716 13.9108 1.62366 13.208 1.76241C12.736 1.25735 12.1103 0.922383 11.4282 0.809603C10.7462 0.696823 10.046 0.812533 9.43647 1.13875C8.82697 1.46497 8.34227 1.98342 8.05777 2.61351C7.77337 3.24359 7.70507 3.95 7.86347 4.62291C6.61627 4.5604 5.39623 4.2363 4.28244 3.67166C3.16866 3.10702 2.18607 2.31445 1.39848 1.34541C1.1197 1.82425 0.973199 2.36858 0.973979 2.92266C0.973979 4.01016 1.52748 4.97091 2.36898 5.53344C1.87099 5.51774 1.38395 5.38324 0.948479 5.14114V5.18014C0.948629 5.90444 1.19926 6.60634 1.65786 7.16694C2.11647 7.72754 2.75484 8.11224 3.46473 8.25594C3.00244 8.38114 2.51771 8.39964 2.04723 8.30994C2.24738 8.93334 2.63748 9.47854 3.16292 9.86924C3.68836 10.2599 4.32283 10.4765 4.97748 10.4886C4.32684 10.9996 3.58186 11.3774 2.78514 11.6003C1.98842 11.8231 1.15557 11.8868 0.334229 11.7876C1.768 12.7097 3.43705 13.1992 5.14173 13.1976C10.9115 13.1976 14.0668 8.41794 14.0668 4.27266C14.0668 4.13766 14.063 4.00116 14.057 3.86766C14.6712 3.42379 15.2012 2.87393 15.6223 2.24391L15.6215 2.24316Z" fill="#BDB8AD"/>
</svg>
