<svg width="22" height="20" viewBox="0 0 22 20" fill="none" xmlns="http://www.w3.org/2000/svg">
<path d="M9.5 15.1502L13.48 12.8702C14.15 12.4902 14.15 11.5202 13.48 11.1302L9.5 8.8502C8.83 8.4702 8 8.9602 8 9.7202V14.2702C8 15.0402 8.83 15.5302 9.5 15.1502ZM20 4.0002H12.41L15.35 1.0602C15.55 0.860195 15.55 0.550195 15.35 0.350195C15.15 0.150195 14.84 0.150195 14.64 0.350195L11 3.9902L7.36 0.350195C7.16 0.150195 6.85 0.150195 6.65 0.350195C6.45 0.550195 6.45 0.860195 6.65 1.0602L9.59 4.0002H2C0.9 4.0002 0 4.8902 0 6.0002V18.0002C0 19.1002 0.9 20.0002 2 20.0002H20C21.1 20.0002 22 19.1002 22 18.0002V6.0002C22 4.8902 21.1 4.0002 20 4.0002ZM19 18.0002H3C2.45 18.0002 2 17.5502 2 17.0002V7.0002C2 6.4502 2.45 6.0002 3 6.0002H19C19.55 6.0002 20 6.4502 20 7.0002V17.0002C20 17.5502 19.55 18.0002 19 18.0002Z" fill="#0F1319"/>
</svg>
