<svg width="212" height="32" viewBox="0 0 212 32" fill="none" xmlns="http://www.w3.org/2000/svg">
<path d="M15.8463 31.1287C25.6524 31.1287 31.3097 26.0161 31.3097 16.5872V1.1657H23.5571V16.5872C23.5571 21.9931 21.1265 24.9685 15.8044 24.9685C10.5661 24.9685 7.8422 22.0769 7.8422 16.7548H0.0895386C0.0895386 25.9742 5.95642 31.1287 15.8463 31.1287ZM53.8664 31.1287C66.7735 31.1287 72.8919 26.3095 72.8919 16.0843V1.1657H65.1392V16.5872C65.1392 22.0769 61.3676 24.9685 54.2436 24.9685C47.0776 24.9685 43.3479 21.9512 43.3479 16.2101V1.1657H35.5953V16.4615C35.5953 26.4352 41.4622 31.1287 53.8664 31.1287ZM101.606 21.7836L88.6993 1.1657H77.4266V30.5001H85.0535V9.33742L98.0863 30.5001H104.247L117.279 8.66692V30.5001H125.032V1.1657H114.011L101.606 21.7836ZM160.943 15.4138C164.044 14.3243 165.72 11.9775 165.72 8.70883C165.72 4.01533 162.284 1.1657 156.333 1.1657H129.932V30.5001H156.71C163.038 30.5001 166.6 27.6924 166.6 22.7055C166.6 18.9759 164.589 16.4196 160.943 15.4138ZM158.428 10.1336C158.428 11.9356 157.087 12.9414 154.699 12.9414H137.685V7.28402H154.699C157.087 7.28402 158.428 8.33167 158.428 10.1336ZM137.685 24.5075V18.5568H155.327C157.758 18.5568 159.183 19.6045 159.183 21.5322C159.183 23.4179 157.758 24.5075 155.327 24.5075H137.685ZM190.269 31.1287C203.762 31.1287 211.222 25.6809 211.222 15.8329C211.222 5.98492 203.762 0.537109 190.269 0.537109C176.775 0.537109 169.316 5.98492 169.316 15.8329C169.316 25.6809 176.775 31.1287 190.269 31.1287ZM190.269 24.9685C181.678 24.9685 177.068 21.7836 177.068 15.8329C177.068 9.8822 181.678 6.69733 190.269 6.69733C198.901 6.69733 203.469 9.8822 203.469 15.8329C203.469 21.7836 198.901 24.9685 190.269 24.9685Z" fill="white"/>
</svg>
